<mxfile host="app.diagrams.net" modified="2023-10-09T01:46:17.853Z" agent="Mozilla/5.0 (Macintosh; Intel Mac OS X 10_15_7) AppleWebKit/537.36 (KHTML, like Gecko) Chrome/117.0.0.0 Safari/537.36" etag="QCCBbuimmmrPpShXzANw" version="22.0.0" type="github">
  <diagram name="Page-1" id="tmUIB9Mfei0qjDSWE34u">
    <mxGraphModel dx="1060" dy="686" grid="1" gridSize="10" guides="1" tooltips="1" connect="1" arrows="1" fold="1" page="1" pageScale="1" pageWidth="850" pageHeight="1100" math="0" shadow="0">
      <root>
        <mxCell id="0" />
        <mxCell id="1" parent="0" />
        <mxCell id="QuhtVS0g5ab3AL7SEz5x-1" value="" style="endArrow=classic;html=1;rounded=0;" parent="1" edge="1">
          <mxGeometry width="50" height="50" relative="1" as="geometry">
            <mxPoint x="239.5" y="120" as="sourcePoint" />
            <mxPoint x="240" y="960" as="targetPoint" />
          </mxGeometry>
        </mxCell>
        <mxCell id="QuhtVS0g5ab3AL7SEz5x-2" value="client" style="text;html=1;strokeColor=none;fillColor=none;align=center;verticalAlign=middle;whiteSpace=wrap;rounded=0;" parent="1" vertex="1">
          <mxGeometry x="210" y="80" width="60" height="40" as="geometry" />
        </mxCell>
        <mxCell id="QuhtVS0g5ab3AL7SEz5x-3" value="worker" style="text;html=1;strokeColor=none;fillColor=none;align=center;verticalAlign=middle;whiteSpace=wrap;rounded=0;" parent="1" vertex="1">
          <mxGeometry x="530" y="80" width="60" height="40" as="geometry" />
        </mxCell>
        <mxCell id="QuhtVS0g5ab3AL7SEz5x-4" value="" style="endArrow=classic;html=1;rounded=0;" parent="1" edge="1">
          <mxGeometry width="50" height="50" relative="1" as="geometry">
            <mxPoint x="559.5" y="120" as="sourcePoint" />
            <mxPoint x="560" y="960" as="targetPoint" />
          </mxGeometry>
        </mxCell>
        <mxCell id="QuhtVS0g5ab3AL7SEz5x-7" value="new QThread" style="rounded=0;whiteSpace=wrap;html=1;" parent="1" vertex="1">
          <mxGeometry x="80" y="160" width="160" height="40" as="geometry" />
        </mxCell>
        <mxCell id="QuhtVS0g5ab3AL7SEz5x-8" value="new Worker" style="rounded=0;whiteSpace=wrap;html=1;" parent="1" vertex="1">
          <mxGeometry x="80" y="210" width="160" height="40" as="geometry" />
        </mxCell>
        <mxCell id="QuhtVS0g5ab3AL7SEz5x-9" value="" style="endArrow=classic;html=1;rounded=0;" parent="1" edge="1">
          <mxGeometry width="50" height="50" relative="1" as="geometry">
            <mxPoint x="240" y="310" as="sourcePoint" />
            <mxPoint x="560" y="310" as="targetPoint" />
          </mxGeometry>
        </mxCell>
        <mxCell id="QuhtVS0g5ab3AL7SEz5x-11" value="QThread.start" style="edgeLabel;html=1;align=center;verticalAlign=middle;resizable=0;points=[];" parent="QuhtVS0g5ab3AL7SEz5x-9" vertex="1" connectable="0">
          <mxGeometry x="0.0063" y="3" relative="1" as="geometry">
            <mxPoint y="2" as="offset" />
          </mxGeometry>
        </mxCell>
        <mxCell id="QuhtVS0g5ab3AL7SEz5x-12" value="Worker.work" style="rounded=0;whiteSpace=wrap;html=1;" parent="1" vertex="1">
          <mxGeometry x="400" y="320" width="160" height="40" as="geometry" />
        </mxCell>
        <mxCell id="QuhtVS0g5ab3AL7SEz5x-13" value="Worker.moveToThread" style="rounded=0;whiteSpace=wrap;html=1;" parent="1" vertex="1">
          <mxGeometry x="80" y="260" width="160" height="40" as="geometry" />
        </mxCell>
        <mxCell id="QuhtVS0g5ab3AL7SEz5x-14" value="emit Worker.finished" style="rounded=0;whiteSpace=wrap;html=1;" parent="1" vertex="1">
          <mxGeometry x="400" y="370" width="160" height="40" as="geometry" />
        </mxCell>
        <mxCell id="QuhtVS0g5ab3AL7SEz5x-15" value="Worker.deleteLater" style="rounded=0;whiteSpace=wrap;html=1;" parent="1" vertex="1">
          <mxGeometry x="400" y="690" width="160" height="40" as="geometry" />
        </mxCell>
        <mxCell id="QuhtVS0g5ab3AL7SEz5x-16" value="" style="endArrow=classic;html=1;rounded=0;" parent="1" edge="1">
          <mxGeometry width="50" height="50" relative="1" as="geometry">
            <mxPoint x="560" y="420" as="sourcePoint" />
            <mxPoint x="240" y="420" as="targetPoint" />
          </mxGeometry>
        </mxCell>
        <mxCell id="QuhtVS0g5ab3AL7SEz5x-17" value="enqueue QThread.quit" style="edgeLabel;html=1;align=center;verticalAlign=middle;resizable=0;points=[];" parent="QuhtVS0g5ab3AL7SEz5x-16" vertex="1" connectable="0">
          <mxGeometry x="0.0063" y="3" relative="1" as="geometry">
            <mxPoint y="-4" as="offset" />
          </mxGeometry>
        </mxCell>
        <mxCell id="QuhtVS0g5ab3AL7SEz5x-18" value="process other events" style="rounded=0;whiteSpace=wrap;html=1;" parent="1" vertex="1">
          <mxGeometry x="80" y="430" width="160" height="190" as="geometry" />
        </mxCell>
        <mxCell id="QuhtVS0g5ab3AL7SEz5x-19" value="process other connections" style="rounded=0;whiteSpace=wrap;html=1;" parent="1" vertex="1">
          <mxGeometry x="400" y="430" width="160" height="40" as="geometry" />
        </mxCell>
        <mxCell id="QuhtVS0g5ab3AL7SEz5x-20" value="delete Worker" style="rounded=0;whiteSpace=wrap;html=1;" parent="1" vertex="1">
          <mxGeometry x="400" y="840" width="160" height="40" as="geometry" />
        </mxCell>
        <mxCell id="QuhtVS0g5ab3AL7SEz5x-21" value="" style="endArrow=classic;html=1;rounded=0;" parent="1" edge="1">
          <mxGeometry width="50" height="50" relative="1" as="geometry">
            <mxPoint x="240" y="630" as="sourcePoint" />
            <mxPoint x="560" y="630" as="targetPoint" />
          </mxGeometry>
        </mxCell>
        <mxCell id="QuhtVS0g5ab3AL7SEz5x-22" value="QThread.quit" style="edgeLabel;html=1;align=center;verticalAlign=middle;resizable=0;points=[];" parent="QuhtVS0g5ab3AL7SEz5x-21" vertex="1" connectable="0">
          <mxGeometry x="0.0063" y="3" relative="1" as="geometry">
            <mxPoint y="2" as="offset" />
          </mxGeometry>
        </mxCell>
        <mxCell id="QuhtVS0g5ab3AL7SEz5x-23" value="process other events" style="rounded=0;whiteSpace=wrap;html=1;" parent="1" vertex="1">
          <mxGeometry x="400" y="480" width="160" height="40" as="geometry" />
        </mxCell>
        <mxCell id="QuhtVS0g5ab3AL7SEz5x-24" value="emit QThread.finished" style="rounded=0;whiteSpace=wrap;html=1;" parent="1" vertex="1">
          <mxGeometry x="400" y="640" width="160" height="40" as="geometry" />
        </mxCell>
        <mxCell id="QuhtVS0g5ab3AL7SEz5x-25" value="delete QThread" style="rounded=0;whiteSpace=wrap;html=1;" parent="1" vertex="1">
          <mxGeometry x="400" y="890" width="160" height="40" as="geometry" />
        </mxCell>
        <mxCell id="QuhtVS0g5ab3AL7SEz5x-26" value="process other connections?" style="rounded=0;whiteSpace=wrap;html=1;" parent="1" vertex="1">
          <mxGeometry x="400" y="790" width="160" height="40" as="geometry" />
        </mxCell>
        <mxCell id="uwngYj1vITboo7_BG4Ue-1" value="QThread.deleteLater" style="rounded=0;whiteSpace=wrap;html=1;" vertex="1" parent="1">
          <mxGeometry x="400" y="740" width="160" height="40" as="geometry" />
        </mxCell>
        <mxCell id="uwngYj1vITboo7_BG4Ue-2" value="" style="endArrow=classic;html=1;rounded=0;dashed=1;" edge="1" parent="1">
          <mxGeometry width="50" height="50" relative="1" as="geometry">
            <mxPoint x="400" y="500" as="sourcePoint" />
            <mxPoint x="240" y="499.5" as="targetPoint" />
          </mxGeometry>
        </mxCell>
        <mxCell id="uwngYj1vITboo7_BG4Ue-3" value="enqueue slots?" style="edgeLabel;html=1;align=center;verticalAlign=middle;resizable=0;points=[];" vertex="1" connectable="0" parent="uwngYj1vITboo7_BG4Ue-2">
          <mxGeometry x="0.0063" y="3" relative="1" as="geometry">
            <mxPoint y="-4" as="offset" />
          </mxGeometry>
        </mxCell>
        <mxCell id="uwngYj1vITboo7_BG4Ue-4" value="" style="endArrow=classic;html=1;rounded=0;dashed=1;" edge="1" parent="1">
          <mxGeometry width="50" height="50" relative="1" as="geometry">
            <mxPoint x="400" y="809.94" as="sourcePoint" />
            <mxPoint x="240" y="809.44" as="targetPoint" />
          </mxGeometry>
        </mxCell>
        <mxCell id="uwngYj1vITboo7_BG4Ue-5" value="enqueue slots?" style="edgeLabel;html=1;align=center;verticalAlign=middle;resizable=0;points=[];" vertex="1" connectable="0" parent="uwngYj1vITboo7_BG4Ue-4">
          <mxGeometry x="0.0063" y="3" relative="1" as="geometry">
            <mxPoint y="-4" as="offset" />
          </mxGeometry>
        </mxCell>
      </root>
    </mxGraphModel>
  </diagram>
</mxfile>
